<svg width="22" height="22" viewBox="0 0 22 22" fill="none" xmlns="http://www.w3.org/2000/svg">
<path d="M11 1V6M11 1C10.2867 1 9.5909 1.07467 8.91991 1.21663M11 1C11.7132 1 12.4091 1.07467 13.08 1.21663M11 6C8.23855 6 6 8.2386 6 11M11 6C13.7614 6 16 8.2386 16 11M11 16V21M11 16C13.7614 16 16 13.7614 16 11M11 16C8.23855 16 6 13.7614 6 11M11 21C11.7122 21 12.407 20.9255 13.077 20.784M11 21C10.2851 21 9.58781 20.925 8.91545 20.7824M3.92891 3.92893L7.46444 7.46447M14.5355 14.5355L18.071 18.0711M1 11H6M1 11C1 11.7133 1.07466 12.4092 1.21664 13.0802M1 11C1 10.2857 1.07488 9.58878 1.21727 8.91683M16 11H21M21 11C21 10.2867 20.9253 9.59081 20.7833 8.91978M21 11C21 11.7131 20.9254 12.4086 20.7835 13.0794M3.92891 18.0711L7.46444 14.5355M14.5355 7.46447L18.071 3.92893M16.4466 2.61208C17.621 3.37619 18.6249 4.38023 19.3888 5.55469M19.386 16.4496C18.622 17.6229 17.6183 18.626 16.4445 19.3893M5.55371 19.3882C4.38104 18.6252 3.37831 17.623 2.61474 16.4508M2.61171 5.55387C3.37545 4.37994 4.37894 3.37633 5.55275 2.61244" stroke="white" stroke-width="2" stroke-linecap="round" stroke-linejoin="round"/>
</svg>
