<svg width="17" height="20" viewBox="0 0 17 20" fill="none" xmlns="http://www.w3.org/2000/svg">
<path d="M15.9827 8.28042C15.9827 14.2826 10.0898 18.2998 8.75624 19.1305C8.67752 19.181 8.58595 19.2079 8.49241 19.2079C8.39887 19.2079 8.30729 19.181 8.22857 19.1305C6.90117 18.2689 1 14.1094 1 8.28454C1 6.29744 1.78939 4.39176 3.19448 2.98667C4.59958 1.58157 6.5053 0.792236 8.49241 0.792236C10.4784 0.792782 12.383 1.58182 13.7875 2.98596C15.192 4.39011 15.9816 6.29438 15.9827 8.28042Z" stroke="white" stroke-opacity="0.75" stroke-width="1.5" stroke-linecap="round" stroke-linejoin="round"/>
<path d="M8.5 10C9.88071 10 11 8.88071 11 7.5C11 6.11929 9.88071 5 8.5 5C7.11929 5 6 6.11929 6 7.5C6 8.88071 7.11929 10 8.5 10Z" stroke="white" stroke-opacity="0.75" stroke-width="1.5" stroke-linecap="round" stroke-linejoin="round"/>
</svg>
