<?xml version="1.0" standalone="no"?>
<!DOCTYPE svg PUBLIC "-//W3C//DTD SVG 20010904//EN"
 "http://www.w3.org/TR/2001/REC-SVG-20010904/DTD/svg10.dtd">
<svg version="1.0" xmlns="http://www.w3.org/2000/svg"
 width="700.000000pt" height="700.000000pt" viewBox="0 0 700.000000 700.000000"
 preserveAspectRatio="xMidYMid meet">
<metadata>
Created by potrace 1.14, written by Peter Selinger 2001-2017
</metadata>
<g transform="translate(0.000000,700.000000) scale(0.100000,-0.100000)"
fill="#000000" stroke="none">
<path d="M3278 6996 c-1 -2 -43 -7 -92 -10 -49 -4 -92 -9 -95 -10 -3 -2 -34
-7 -69 -10 -35 -4 -109 -16 -165 -27 -56 -12 -113 -23 -127 -25 -14 -3 -68
-16 -120 -30 -1016 -273 -1844 -966 -2282 -1909 -144 -311 -249 -665 -293
-985 -25 -187 -30 -263 -30 -495 0 -217 6 -313 26 -450 6 -38 12 -82 14 -97
20 -142 73 -361 129 -531 218 -663 608 -1224 1160 -1665 76 -61 245 -180 308
-217 9 -5 52 -31 95 -56 341 -202 768 -358 1173 -428 207 -36 332 -46 590 -46
277 0 350 6 610 51 753 128 1501 544 1995 1108 33 38 67 76 75 85 13 14 67 82
92 116 4 6 18 24 31 40 271 347 535 931 622 1375 31 157 52 298 63 420 14 157
6 622 -13 715 -2 11 -7 39 -9 63 -69 572 -348 1227 -721 1692 -144 180 -341
384 -485 501 -36 30 -67 56 -70 60 -11 14 -201 150 -280 201 -311 201 -662
357 -1020 452 -172 46 -231 57 -555 101 -43 6 -551 15 -557 11z"/>
</g>
</svg>
