<svg width="776" height="255" viewBox="0 0 776 255" fill="none" xmlns="http://www.w3.org/2000/svg">
<path d="M243.677 177.798C215.894 241.965 141.353 271.46 77.1854 243.677C13.018 215.894 -16.4771 141.353 11.3064 77.1852C39.0898 13.0178 113.631 -16.4773 177.798 11.3062C241.966 39.0896 271.461 113.631 243.677 177.798Z" fill="#A757F6"/>
<path d="M175.63 126.517C176.007 126.953 176.26 127.48 176.364 128.044C176.468 128.607 176.42 129.188 176.223 129.725C176.027 130.263 175.69 130.739 175.247 131.105L96.9214 199.508C96.3469 199.958 95.6363 200.205 94.9026 200.208C94.1689 200.211 93.4543 199.971 92.8725 199.527C92.2906 199.082 91.875 198.458 91.6918 197.753C91.5085 197.049 91.5681 196.305 91.8611 195.64L107.171 163.297C111.496 154.159 106.938 143.288 97.3889 139.967L75.4273 132.33C74.8781 132.139 74.3898 131.807 74.0127 131.367C73.6356 130.927 73.3834 130.397 73.282 129.829C73.1807 129.262 73.2339 128.679 73.4361 128.14C73.6384 127.6 73.9824 127.125 74.4326 126.762L153.574 58.6327C154.157 58.1869 154.876 57.949 155.614 57.9574C156.352 57.9658 157.067 58.22 157.643 58.6789C158.219 59.1379 158.623 59.775 158.79 60.4876C158.957 61.2002 158.878 61.9469 158.564 62.6075L142.574 94.1415C137.918 103.324 142.428 114.505 152.152 117.887L174.222 125.561C174.768 125.751 175.254 126.081 175.63 126.517Z" fill="url(#paint0_linear_468_428)"/>
<path d="M355.4 124.68V100.32H368.48C376.76 100.32 381.8 105 381.8 112.56C381.8 119.88 376.76 124.68 368.48 124.68H355.4ZM370.52 138.96C387.32 138.96 398.48 127.92 398.48 112.44C398.48 97.08 387.32 85.92 370.52 85.92H338.72V171H355.28V138.96H370.52ZM446.59 171H461.83C461.59 168.96 461.23 164.88 461.23 160.32V111.96H445.27V146.28C445.27 153.12 441.19 157.92 434.11 157.92C426.67 157.92 423.31 152.64 423.31 146.04V111.96H407.35V149.28C407.35 162.12 415.51 172.56 429.79 172.56C436.03 172.56 442.87 170.16 446.11 164.64C446.11 167.04 446.35 169.8 446.59 171ZM493.742 171V163.8C496.862 168.84 503.102 172.44 511.262 172.44C528.062 172.44 539.102 159.12 539.102 141.24C539.102 123.72 529.142 110.4 511.862 110.4C503.102 110.4 496.622 114.24 493.982 118.44V84.12H478.262V171H493.742ZM523.142 141.36C523.142 152.16 516.662 158.16 508.502 158.16C500.462 158.16 493.742 152.04 493.742 141.36C493.742 130.56 500.462 124.68 508.502 124.68C516.662 124.68 523.142 130.56 523.142 141.36ZM567.699 171V84.12H551.739V171H567.699ZM600.746 171V111.96H584.786V171H600.746ZM582.866 92.64C582.866 97.92 587.306 102.36 592.706 102.36C598.226 102.36 602.546 97.92 602.546 92.64C602.546 87.12 598.226 82.68 592.706 82.68C587.306 82.68 582.866 87.12 582.866 92.64ZM644.353 124.92C652.273 124.92 655.993 129.96 657.433 134.88L671.713 130.08C669.193 120.12 660.073 110.16 643.993 110.16C626.833 110.16 613.393 123.24 613.393 141.48C613.393 159.6 627.073 172.8 644.473 172.8C660.193 172.8 669.433 162.72 672.073 152.88L658.033 148.2C656.713 152.76 652.633 158.16 644.473 158.16C636.313 158.16 629.353 152.16 629.353 141.48C629.353 130.8 636.193 124.92 644.353 124.92ZM699.769 171V84.12H683.809V171H699.769ZM737.256 194.28L774.336 111.96H757.296L742.776 146.52L727.056 111.96H709.176L734.256 163.56L720.336 194.28H737.256Z" fill="white"/>
<defs>
<linearGradient id="paint0_linear_468_428" x1="128.429" y1="80.6567" x2="121.715" y2="170.61" gradientUnits="userSpaceOnUse">
<stop stop-color="#F9FD42"/>
<stop offset="1" stop-color="#FFAB5E"/>
</linearGradient>
</defs>
</svg>
