<svg width="40" height="40" viewBox="0 0 40 40" fill="none" xmlns="http://www.w3.org/2000/svg">
<path d="M38.3488 27.9447C33.961 38.0785 22.189 42.7365 12.0553 38.3488C1.92152 33.961 -2.73653 22.189 1.65122 12.0553C6.03897 1.92152 17.811 -2.73653 27.9447 1.65122C38.0785 6.03897 42.7365 17.811 38.3488 27.9447Z" fill="#A757F6"/>
<path d="M27.6024 19.8461C27.6618 19.915 27.7018 19.9982 27.7182 20.0872C27.7347 20.1762 27.727 20.2678 27.696 20.3528C27.665 20.4377 27.6118 20.5129 27.5418 20.5707L15.1721 31.3734C15.0814 31.4444 14.9692 31.4833 14.8533 31.4838C14.7374 31.4844 14.6246 31.4465 14.5327 31.3762C14.4408 31.306 14.3752 31.2074 14.3462 31.0962C14.3173 30.985 14.3267 30.8675 14.373 30.7625L16.7908 25.6547C17.4739 24.2115 16.7541 22.4947 15.246 21.9703L11.7776 20.7641C11.6909 20.734 11.6138 20.6815 11.5542 20.612C11.4947 20.5426 11.4548 20.4588 11.4388 20.3692C11.4228 20.2796 11.4312 20.1875 11.4632 20.1023C11.4951 20.0172 11.5494 19.9421 11.6205 19.8848L24.1191 9.12533C24.2112 9.05493 24.3247 9.01737 24.4412 9.0187C24.5578 9.02003 24.6707 9.06016 24.7617 9.13264C24.8527 9.20513 24.9165 9.30574 24.9429 9.41828C24.9693 9.53082 24.9567 9.64875 24.9071 9.75307L22.3819 14.7331C21.6465 16.1833 22.3588 17.9491 23.8945 18.4831L27.3799 19.6952C27.4662 19.7252 27.543 19.7772 27.6024 19.8461Z" fill="url(#paint0_linear_417_434)"/>
<defs>
<linearGradient id="paint0_linear_417_434" x1="20.148" y1="12.6035" x2="19.0877" y2="26.8095" gradientUnits="userSpaceOnUse">
<stop stop-color="#F9FD42"/>
<stop offset="1" stop-color="#FFAB5E"/>
</linearGradient>
</defs>
</svg>
